<svg xmlns="http://www.w3.org/2000/svg" viewBox="0 0 840 1188"><rect width="840" height="1188" fill="#fff"/><rect x="40" y="40" width="760" height="1108" fill="none" stroke="#222" stroke-width="2"/><text x="420" y="110" font-family="sans-serif" font-size="34" text-anchor="middle">Однолинейная схема ЩК-1</text><line x1="420" y1="160" x2="420" y2="300" stroke="#222" stroke-width="4"/><rect x="380" y="300" width="80" height="60" fill="none" stroke="#222" stroke-width="4"/><line x1="160" y1="420" x2="680" y2="420" stroke="#222" stroke-width="4"/><line x1="420" y1="360" x2="420" y2="420" stroke="#222" stroke-width="4"/><line x1="160" y1="420" x2="160" y2="900" stroke="#222" stroke-width="3"/><rect x="142" y="520" width="36" height="60" fill="#fff" stroke="#222" stroke-width="3"/><line x1="225" y1="420" x2="225" y2="900" stroke="#222" stroke-width="3"/><rect x="207" y="520" width="36" height="60" fill="#fff" stroke="#222" stroke-width="3"/><line x1="290" y1="420" x2="290" y2="900" stroke="#222" stroke-width="3"/><rect x="272" y="520" width="36" height="60" fill="#fff" stroke="#222" stroke-width="3"/><line x1="355" y1="420" x2="355" y2="900" stroke="#222" stroke-width="3"/><rect x="337" y="520" width="36" height="60" fill="#fff" stroke="#222" stroke-width="3"/><line x1="420" y1="420" x2="420" y2="900" stroke="#222" stroke-width="3"/><rect x="402" y="520" width="36" height="60" fill="#fff" stroke="#222" stroke-width="3"/><line x1="485" y1="420" x2="485" y2="900" stroke="#222" stroke-width="3"/><rect x="467" y="520" width="36" height="60" fill="#fff" stroke="#222" stroke-width="3"/><line x1="550" y1="420" x2="550" y2="900" stroke="#222" stroke-width="3"/><rect x="532" y="520" width="36" height="60" fill="#fff" stroke="#222" stroke-width="3"/><line x1="615" y1="420" x2="615" y2="900" stroke="#222" stroke-width="3"/><rect x="597" y="520" width="36" height="60" fill="#fff" stroke="#222" stroke-width="3"/><line x1="680" y1="420" x2="680" y2="900" stroke="#222" stroke-width="3"/><rect x="662" y="520" width="36" height="60" fill="#fff" stroke="#222" stroke-width="3"/><text x="420" y="1120" font-family="sans-serif" font-size="20" text-anchor="middle" fill="#999">DEMO</text></svg>